<svg width="279" height="36" viewBox="0 0 279 36" fill="none" xmlns="http://www.w3.org/2000/svg">
<g clip-path="url(#clip0_304:2473)">
<path d="M49.2693 20.2368C49.9443 20.2368 50.5135 20.25 50.9899 20.2632C51.4664 20.2897 51.8635 20.3294 52.1943 20.3691C52.5252 20.422 52.7767 20.4882 52.962 20.5676C53.1473 20.647 53.2929 20.7662 53.3855 20.9117C53.4782 21.0706 53.5443 21.2294 53.5708 21.375C53.5973 21.5338 53.6105 21.7059 53.6105 21.9044C53.6105 22.1294 53.5973 22.3279 53.5708 22.5C53.5443 22.672 53.4782 22.8441 53.3723 22.9897C53.2796 23.1353 53.1208 23.2544 52.9223 23.3603C52.7237 23.4529 52.4458 23.5456 52.1149 23.625C51.7708 23.6912 51.3473 23.7441 50.8311 23.7706C50.3149 23.8103 49.7061 23.8235 48.9782 23.8235C48.184 23.8235 47.5223 23.797 47.0061 23.7573C46.4899 23.7176 46.0664 23.625 45.762 23.5059C45.4576 23.3735 45.2326 23.2015 45.1135 22.9765C44.9943 22.7515 44.9282 22.447 44.9282 22.0897H43.1943C43.1943 22.6323 43.287 23.0956 43.4855 23.4794C43.684 23.8632 44.0017 24.1676 44.4517 24.4059C44.9017 24.6441 45.4973 24.8162 46.2385 24.9353C46.9796 25.0412 47.8929 25.0941 48.9782 25.0941C49.8385 25.0941 50.6061 25.0676 51.2679 25.0147C51.9164 24.9618 52.4855 24.8823 52.9487 24.7765C53.412 24.6706 53.809 24.5382 54.1267 24.3662C54.4311 24.1941 54.6826 23.9823 54.8546 23.7441C55.0399 23.5059 55.1723 23.2279 55.2384 22.9235C55.3046 22.6191 55.3443 22.2617 55.3443 21.8779C55.3443 21.4809 55.3046 21.1367 55.2384 20.8323C55.1723 20.5279 55.0399 20.2765 54.8679 20.0647C54.6958 19.8397 54.4576 19.6412 54.1532 19.4426C53.862 19.2573 53.4914 19.125 53.0282 19.0323C52.5782 18.9397 52.0487 18.8868 51.4267 18.847C50.8046 18.8073 50.0899 18.7809 49.2693 18.7809C48.5943 18.7809 48.012 18.7809 47.5355 18.7809C47.059 18.7809 46.662 18.7676 46.3443 18.7279C46.0135 18.6882 45.762 18.6485 45.5767 18.5823C45.3914 18.5162 45.2458 18.4103 45.1532 18.2912C45.0605 18.172 44.9943 18 44.9679 17.8015C44.9414 17.6029 44.9282 17.4044 44.9282 17.2059C44.9282 16.8485 45.0076 16.5838 45.1664 16.3853C45.312 16.1868 45.5767 16.0279 45.934 15.9353C46.2914 15.8426 46.7679 15.7765 47.3635 15.75C47.959 15.7368 48.687 15.7235 49.5605 15.7235C50.3546 15.7235 51.0164 15.75 51.5326 15.7897C52.0487 15.8294 52.4723 15.9088 52.7767 16.0279C53.0811 16.147 53.3061 16.3191 53.4252 16.5176C53.5443 16.7162 53.6105 16.9809 53.6105 17.3118H55.3443C55.3443 16.7956 55.2517 16.3456 55.0796 15.9618C54.9076 15.5779 54.6032 15.2603 54.1664 15.0088C53.7296 14.7573 53.134 14.572 52.3929 14.4529C51.6517 14.3338 50.712 14.2676 49.5605 14.2676C48.409 14.2676 47.4164 14.3206 46.609 14.4265C45.8017 14.5323 45.1399 14.7044 44.637 14.9294C44.1208 15.1544 43.7502 15.4588 43.5252 15.8294C43.3002 16.2 43.1943 16.6632 43.1943 17.2059C43.1943 17.6029 43.234 17.9735 43.3002 18.3176C43.3664 18.6485 43.4987 18.9397 43.6708 19.1779C43.8429 19.4029 44.0811 19.5882 44.3723 19.7338C44.6767 19.8662 45.0473 19.972 45.4973 20.0515C45.9473 20.1176 46.4767 20.1706 47.0987 20.197C47.7208 20.2235 48.4487 20.2368 49.2693 20.2368ZM63.7487 20.2368C64.4237 20.2368 64.9929 20.25 65.4693 20.2632C65.9458 20.2897 66.3429 20.3294 66.6737 20.3691C66.9914 20.422 67.2429 20.4882 67.4414 20.5676C67.6267 20.647 67.7723 20.7662 67.8649 20.9117C67.9576 21.0706 68.0237 21.2294 68.0502 21.375C68.0767 21.5338 68.0899 21.7059 68.0899 21.9044C68.0899 22.1294 68.0767 22.3279 68.0502 22.5C68.0237 22.672 67.9576 22.8441 67.8517 22.9897C67.7458 23.1353 67.6002 23.2544 67.4017 23.3603C67.2031 23.4529 66.9252 23.5456 66.5811 23.625C66.237 23.6912 65.8134 23.7441 65.3105 23.7706C64.7943 23.8103 64.1855 23.8235 63.4576 23.8235C62.6634 23.8235 62.0017 23.797 61.4723 23.7573C60.9561 23.7176 60.5326 23.625 60.2282 23.5059C59.9237 23.3735 59.712 23.2015 59.5929 22.9765C59.4737 22.7515 59.4076 22.447 59.4076 22.0897H57.6605C57.6605 22.6323 57.7532 23.0956 57.9517 23.4794C58.1502 23.8632 58.4811 24.1676 58.9311 24.4059C59.3811 24.6441 59.9767 24.8162 60.7179 24.9353C61.459 25.0412 62.3723 25.0941 63.4576 25.0941C64.3179 25.0941 65.0855 25.0676 65.734 25.0147C66.3958 24.9618 66.9649 24.8823 67.4282 24.7765C67.8914 24.6706 68.2884 24.5382 68.5929 24.3662C68.9105 24.1941 69.162 23.9823 69.334 23.7441C69.5193 23.5059 69.6517 23.2279 69.7179 22.9235C69.784 22.6191 69.8237 22.2617 69.8237 21.8779C69.8237 21.4809 69.784 21.1367 69.7179 20.8323C69.6517 20.5279 69.5193 20.2765 69.334 20.0647C69.162 19.8397 68.9237 19.6412 68.6326 19.4426C68.3281 19.2573 67.9576 19.125 67.5076 19.0323C67.0576 18.9397 66.5281 18.8868 65.9061 18.847C65.284 18.8073 64.5693 18.7809 63.7487 18.7809C63.0737 18.7809 62.4914 18.7809 62.0149 18.7809C61.5384 18.7809 61.1414 18.7676 60.8105 18.7279C60.4929 18.6882 60.2414 18.6485 60.0561 18.5823C59.8708 18.5162 59.7252 18.4103 59.6326 18.2912C59.5399 18.172 59.4737 18 59.4473 17.8015C59.4208 17.6029 59.4076 17.4044 59.4076 17.2059C59.4076 16.8485 59.487 16.5838 59.6326 16.3853C59.7914 16.1868 60.0561 16.0279 60.4134 15.9353C60.7708 15.8426 61.2473 15.7765 61.8429 15.75C62.4384 15.7368 63.1664 15.7235 64.0399 15.7235C64.834 15.7235 65.4958 15.75 66.012 15.7897C66.5281 15.8294 66.9517 15.9088 67.2561 16.0279C67.5605 16.147 67.7855 16.3191 67.9046 16.5176C68.0237 16.7162 68.0899 16.9809 68.0899 17.3118H69.8237C69.8237 16.7956 69.7311 16.3456 69.559 15.9618C69.387 15.5779 69.0826 15.2603 68.6458 15.0088C68.209 14.7573 67.6134 14.572 66.8723 14.4529C66.1179 14.3338 65.1781 14.2676 64.0399 14.2676C62.8752 14.2676 61.8958 14.3206 61.0884 14.4265C60.2811 14.5323 59.6193 14.7044 59.1164 14.9294C58.6002 15.1544 58.2296 15.4588 58.0046 15.8294C57.7796 16.2 57.6605 16.6632 57.6605 17.2059C57.6605 17.6029 57.7002 17.9735 57.7664 18.3176C57.8458 18.6485 57.9649 18.9397 58.137 19.1779C58.309 19.4029 58.5473 19.5882 58.8517 19.7338C59.1561 19.8662 59.5267 19.972 59.9767 20.0515C60.4267 20.1176 60.9561 20.1706 61.5782 20.197C62.2002 20.2235 62.9282 20.2368 63.7487 20.2368ZM72.7223 24.9882V11.0912H74.4561V24.9882H72.7223ZM77.0634 19.7867C77.0634 19.0588 77.1031 18.4235 77.1693 17.8676C77.2355 17.325 77.3678 16.8353 77.5531 16.425C77.7384 16.0147 77.9899 15.6706 78.2943 15.3926C78.5987 15.1147 78.9958 14.9029 79.4723 14.7309C79.9487 14.5588 80.5178 14.4397 81.1664 14.3735C81.8149 14.3073 82.5693 14.2676 83.4428 14.2676C84.5943 14.2676 85.5473 14.3338 86.3017 14.4794C87.0561 14.625 87.6384 14.8368 88.0752 15.1279C88.512 15.4191 88.8031 15.7897 88.9752 16.2397C89.1473 16.6897 89.2267 17.2191 89.2267 17.8412H87.4928C87.4928 17.6162 87.4928 17.4176 87.4796 17.2191C87.4664 17.0206 87.4134 16.8485 87.3473 16.7029C87.2678 16.5441 87.1487 16.3985 86.9899 16.2794C86.8178 16.1603 86.5928 16.0544 86.2884 15.9618C85.984 15.8823 85.6134 15.8162 85.1502 15.7765C84.687 15.7368 84.1178 15.7103 83.4428 15.7103C82.662 15.7103 82.0134 15.7368 81.484 15.7897C80.9678 15.8426 80.5311 15.9353 80.187 16.0544C79.8428 16.1735 79.5781 16.3456 79.3928 16.5573C79.1943 16.7691 79.062 17.0206 78.9826 17.325C78.8899 17.6294 78.8502 17.9735 78.837 18.3838C78.8237 18.7941 78.8105 19.2573 78.8105 19.7867C78.8105 20.3029 78.8237 20.7662 78.837 21.1765C78.8502 21.5735 78.8899 21.9176 78.9826 22.222C79.062 22.5265 79.1943 22.7779 79.3928 22.9765C79.5781 23.175 79.8428 23.347 80.187 23.4794C80.5311 23.5985 80.9678 23.6912 81.484 23.7441C82.0134 23.797 82.662 23.8235 83.4428 23.8235C84.1178 23.8235 84.687 23.797 85.1502 23.7573C85.6134 23.7044 85.984 23.6382 86.2884 23.5456C86.5928 23.4529 86.8178 23.347 86.9899 23.2147C87.1487 23.0823 87.2678 22.9235 87.3473 22.7514C87.4134 22.5794 87.4664 22.3941 87.4796 22.1823C87.4928 21.9838 87.4928 21.7588 87.4928 21.5073H89.2267C89.2267 22.1426 89.1473 22.6985 88.9752 23.1618C88.8031 23.625 88.512 23.9956 88.0752 24.3C87.6384 24.6044 87.0561 24.8162 86.3017 24.9618C85.5473 25.1073 84.5943 25.1867 83.4428 25.1867C82.5693 25.1867 81.8149 25.147 81.1664 25.0809C80.5178 25.0015 79.9487 24.8823 79.4723 24.7235C78.9958 24.5515 78.5987 24.3397 78.2943 24.0618C77.9899 23.7838 77.7384 23.4529 77.5531 23.0559C77.3678 22.6588 77.2355 22.1956 77.1693 21.6529C77.0899 21.1103 77.0634 20.4882 77.0634 19.7867ZM97.6311 25.1867C96.4664 25.1867 95.487 25.1073 94.6796 24.9485C93.8723 24.7897 93.2105 24.5118 92.7075 24.1147C92.1914 23.7309 91.8208 23.2015 91.5958 22.5397C91.3708 21.8912 91.2517 21.0573 91.2517 20.0647C91.2517 18.9265 91.3708 17.9867 91.5958 17.2323C91.8208 16.4912 92.1914 15.8956 92.7075 15.4588C93.2105 15.022 93.8723 14.7044 94.6796 14.5323C95.487 14.3603 96.4664 14.2676 97.6311 14.2676C98.4517 14.2676 99.1664 14.3338 99.7752 14.4529C100.384 14.572 100.9 14.7573 101.337 14.9823C101.76 15.2073 102.105 15.4853 102.383 15.8162C102.647 16.147 102.859 16.4779 103.018 16.8353C103.163 17.1926 103.269 17.6162 103.335 18.1059C103.388 18.5823 103.415 19.0853 103.415 19.6279L103.269 20.2103H92.9987C92.9987 21.0044 93.0781 21.6529 93.2237 22.1691C93.3825 22.6853 93.6473 23.0559 94.0046 23.2809C94.362 23.5191 94.8384 23.6647 95.434 23.7309C96.0296 23.797 96.7575 23.8235 97.6311 23.8235C98.4252 23.8235 99.087 23.797 99.6031 23.7573C100.119 23.7176 100.543 23.625 100.847 23.5059C101.152 23.3735 101.377 23.2015 101.496 22.9765C101.615 22.7515 101.681 22.447 101.681 22.0897H103.415C103.415 22.6588 103.322 23.1353 103.124 23.5191C102.925 23.9162 102.608 24.2338 102.144 24.4853C101.694 24.7235 101.099 24.8956 100.358 25.0147C99.6164 25.1206 98.7164 25.1867 97.6311 25.1867ZM97.6311 15.7235C97.0487 15.7235 96.5325 15.7368 96.0693 15.75C95.6193 15.7765 95.2223 15.8294 94.8781 15.9088C94.5473 16.0015 94.2561 16.1206 94.0046 16.2662C93.7664 16.425 93.5678 16.6103 93.4223 16.8088C93.2767 17.0206 93.1708 17.3118 93.1046 17.6823C93.0384 18.0662 92.9987 18.5162 92.9987 19.0456H101.681C101.681 18.3441 101.602 17.7882 101.456 17.3912C101.31 16.9809 101.072 16.65 100.741 16.3985C100.41 16.147 100 15.9618 99.484 15.8691C98.9678 15.7632 98.3458 15.7235 97.6311 15.7235ZM116.16 17.9603H114.705C114.705 17.5235 114.678 17.1529 114.612 16.875C114.546 16.5838 114.4 16.3588 114.162 16.1867C113.937 16.0147 113.58 15.8956 113.116 15.8294C112.653 15.7632 112.031 15.7235 111.237 15.7235C110.456 15.7235 109.821 15.7897 109.331 15.922C108.841 16.0676 108.458 16.2529 108.18 16.5044C107.902 16.7559 107.716 17.047 107.624 17.3912C107.518 17.722 107.465 18.1059 107.465 18.5294V24.9882H105.731V14.5588H107.465V16.2132C107.531 16.0279 107.637 15.8294 107.809 15.6044C107.968 15.3794 108.219 15.1676 108.55 14.9691C108.881 14.7706 109.305 14.5985 109.834 14.4662C110.363 14.3338 111.025 14.2676 111.819 14.2676C112.719 14.2676 113.447 14.347 114.016 14.5059C114.585 14.6779 115.035 14.9162 115.353 15.2206C115.658 15.525 115.869 15.9088 115.988 16.372C116.094 16.822 116.16 17.3515 116.16 17.9603ZM125.994 20.3559H127.45C127.45 21.2426 127.371 21.9838 127.225 22.5794C127.08 23.175 126.841 23.6382 126.497 23.9956C126.166 24.3529 125.716 24.6176 125.16 24.7632C124.605 24.9088 123.916 24.9882 123.109 24.9882C122.315 24.9882 121.653 24.922 121.11 24.8029C120.568 24.6838 120.144 24.472 119.813 24.1941C119.483 23.9029 119.244 23.5191 119.099 23.0294C118.953 22.5397 118.874 21.9441 118.874 21.2162V15.9882H116.73V14.5588H118.874V11.7132H120.621V14.5588H127.159V15.9882H120.621V21.2162C120.621 21.7985 120.66 22.2485 120.753 22.5662C120.846 22.8706 120.978 23.1088 121.163 23.2544C121.362 23.4 121.613 23.4794 121.931 23.5059C122.249 23.5191 122.633 23.5323 123.096 23.5323C123.453 23.5323 123.784 23.5323 124.062 23.5191C124.353 23.5059 124.605 23.4662 124.816 23.4C125.028 23.3338 125.213 23.2412 125.372 23.122C125.518 22.9897 125.637 22.8044 125.73 22.5662C125.822 22.3412 125.902 22.0367 125.941 21.6794C125.968 21.3088 125.994 20.872 125.994 20.3559ZM130.349 24.9882V14.5588H132.083V24.9882H130.349ZM132.083 11.0912V12.825H130.349V11.0912H132.083ZM143.372 15.8823H138.449V24.9882H136.715V15.8823H134.981V14.5588H136.715V14.4662C136.715 13.7647 136.794 13.1691 136.953 12.7059C137.099 12.2426 137.363 11.8588 137.721 11.5809C138.078 11.3029 138.568 11.0912 139.163 10.9721C139.759 10.8529 140.487 10.8 141.347 10.8H143.372V12.2426H141.347C140.805 12.2426 140.341 12.2559 139.971 12.2823C139.6 12.3088 139.309 12.3882 139.084 12.5206C138.859 12.6662 138.687 12.8779 138.594 13.1823C138.502 13.4868 138.449 13.9235 138.449 14.4662V14.5588H143.372V15.8823ZM145.106 24.9882V14.5588H146.84V24.9882H145.106ZM146.84 11.0912V12.825H145.106V11.0912H146.84ZM149.447 19.7867C149.447 19.0588 149.487 18.4235 149.566 17.8676C149.633 17.325 149.765 16.8353 149.95 16.425C150.122 16.0147 150.374 15.6706 150.691 15.3926C150.996 15.1147 151.393 14.9029 151.856 14.7309C152.333 14.5588 152.902 14.4397 153.55 14.3735C154.199 14.3073 154.966 14.2676 155.827 14.2676C156.978 14.2676 157.931 14.3338 158.685 14.4794C159.44 14.625 160.022 14.8368 160.459 15.1279C160.896 15.4191 161.2 15.7897 161.372 16.2397C161.544 16.6897 161.624 17.2191 161.624 17.8412H159.877C159.877 17.6162 159.877 17.4176 159.863 17.2191C159.85 17.0206 159.81 16.8485 159.731 16.7029C159.665 16.5441 159.546 16.3985 159.374 16.2794C159.215 16.1603 158.99 16.0544 158.685 15.9618C158.381 15.8823 157.997 15.8162 157.534 15.7765C157.071 15.7368 156.502 15.7103 155.827 15.7103C155.059 15.7103 154.41 15.7368 153.881 15.7897C153.352 15.8426 152.915 15.9353 152.571 16.0544C152.227 16.1735 151.962 16.3456 151.777 16.5573C151.591 16.7691 151.459 17.0206 151.366 17.325C151.287 17.6294 151.234 17.9735 151.221 18.3838C151.208 18.7941 151.194 19.2573 151.194 19.7867C151.194 20.3029 151.208 20.7662 151.221 21.1765C151.234 21.5735 151.287 21.9176 151.366 22.222C151.459 22.5265 151.591 22.7779 151.777 22.9765C151.962 23.175 152.227 23.347 152.571 23.4794C152.915 23.5985 153.352 23.6912 153.881 23.7441C154.41 23.797 155.059 23.8235 155.827 23.8235C156.502 23.8235 157.071 23.797 157.534 23.7573C157.997 23.7044 158.381 23.6382 158.685 23.5456C158.99 23.4529 159.215 23.347 159.374 23.2147C159.546 23.0823 159.665 22.9235 159.731 22.7514C159.81 22.5794 159.85 22.3941 159.863 22.1823C159.877 21.9838 159.877 21.7588 159.877 21.5073H161.624C161.624 22.1426 161.544 22.6985 161.372 23.1618C161.2 23.625 160.896 23.9956 160.459 24.3C160.022 24.6044 159.44 24.8162 158.685 24.9618C157.931 25.1073 156.978 25.1867 155.827 25.1867C154.966 25.1867 154.199 25.147 153.55 25.0809C152.902 25.0015 152.333 24.8823 151.856 24.7235C151.393 24.5515 150.996 24.3397 150.691 24.0618C150.374 23.7838 150.122 23.4529 149.95 23.0559C149.765 22.6588 149.633 22.1956 149.566 21.6529C149.487 21.1103 149.447 20.4882 149.447 19.7867ZM174.316 24.9882V23.5588C174.303 23.625 174.158 23.8103 173.906 24.1015C173.734 24.3132 173.483 24.4985 173.178 24.6706C172.874 24.8426 172.477 24.975 171.974 25.0676C171.471 25.1603 170.809 25.2 169.988 25.2C168.89 25.2 167.963 25.147 167.196 25.0412C166.415 24.922 165.793 24.75 165.303 24.525C164.813 24.2867 164.456 23.9823 164.231 23.625C164.006 23.2676 163.887 22.8309 163.887 22.3279C163.887 21.8117 163.953 21.3617 164.072 21.0044C164.191 20.6338 164.377 20.3294 164.615 20.0779C164.853 19.8265 165.144 19.6412 165.488 19.4956C165.819 19.3632 166.203 19.2573 166.64 19.1912C167.077 19.1118 167.54 19.0588 168.056 19.0456C168.572 19.0323 169.115 19.0191 169.697 19.0191C170.518 19.0191 171.206 19.0588 171.762 19.125C172.318 19.1912 172.768 19.2838 173.125 19.3897C173.482 19.4956 173.747 19.6147 173.919 19.7338C174.105 19.8529 174.237 19.9588 174.316 20.0647C174.316 19.3897 174.29 18.8073 174.224 18.3309C174.171 17.8544 174.078 17.4573 173.946 17.1397C173.813 16.822 173.641 16.5706 173.443 16.372C173.244 16.1867 172.993 16.0412 172.688 15.9485C172.384 15.8559 172.04 15.7897 171.643 15.7632C171.246 15.7367 170.796 15.7235 170.28 15.7235C169.485 15.7235 168.824 15.7368 168.294 15.7765C167.778 15.8162 167.355 15.8956 167.05 16.0147C166.746 16.1338 166.521 16.2926 166.402 16.4912C166.269 16.6897 166.203 16.9412 166.203 17.272H164.469C164.469 16.7294 164.562 16.2662 164.76 15.8823C164.959 15.4985 165.29 15.1941 165.74 14.9559C166.203 14.7176 166.799 14.5456 167.54 14.4397C168.281 14.3206 169.194 14.2676 170.28 14.2676C171.338 14.2676 172.238 14.3603 172.98 14.5323C173.708 14.7044 174.303 15.022 174.766 15.4588C175.216 15.8956 175.547 16.4912 175.746 17.2323C175.944 17.9867 176.05 18.9265 176.05 20.0647V24.9882H174.316ZM170.28 23.8235C171.047 23.8235 171.683 23.7838 172.199 23.7176C172.715 23.6515 173.138 23.5323 173.443 23.3867C173.76 23.2412 173.985 23.0691 174.118 22.8441C174.25 22.6323 174.316 22.3809 174.316 22.0897C174.316 21.7985 174.237 21.547 174.078 21.3485C173.933 21.15 173.668 20.9779 173.31 20.8588C172.953 20.7397 172.49 20.647 171.894 20.5809C171.299 20.5279 170.571 20.5015 169.697 20.5015C168.837 20.5015 168.135 20.5147 167.593 20.5412C167.063 20.5809 166.653 20.647 166.362 20.7529C166.071 20.8588 165.872 21.0176 165.78 21.2294C165.687 21.4412 165.634 21.7323 165.634 22.0897C165.634 22.447 165.687 22.7515 165.793 22.9765C165.899 23.2015 166.11 23.3735 166.428 23.5059C166.759 23.625 167.222 23.7176 167.844 23.7573C168.453 23.797 169.26 23.8235 170.28 23.8235ZM187.049 20.3559H188.505C188.505 21.2426 188.425 21.9838 188.28 22.5794C188.134 23.175 187.896 23.6382 187.552 23.9956C187.221 24.3529 186.771 24.6176 186.215 24.7632C185.659 24.9088 184.971 24.9882 184.163 24.9882C183.369 24.9882 182.708 24.922 182.165 24.8029C181.622 24.6838 181.199 24.472 180.868 24.1941C180.537 23.9029 180.299 23.5191 180.153 23.0294C180.007 22.5397 179.928 21.9441 179.928 21.2162V15.9882H177.784V14.5588H179.928V11.7132H181.675V14.5588H188.213V15.9882H181.675V21.2162C181.675 21.7985 181.715 22.2485 181.794 22.5662C181.887 22.8706 182.019 23.1088 182.218 23.2544C182.416 23.4 182.668 23.4794 182.985 23.5059C183.303 23.5191 183.687 23.5323 184.15 23.5323C184.508 23.5323 184.838 23.5323 185.116 23.5191C185.408 23.5059 185.659 23.4662 185.871 23.4C186.083 23.3338 186.268 23.2412 186.413 23.122C186.572 22.9897 186.691 22.8044 186.784 22.5662C186.877 22.3412 186.956 22.0367 186.996 21.6794C187.022 21.3088 187.049 20.872 187.049 20.3559ZM196.313 25.1867C195.162 25.1867 194.169 25.1073 193.362 24.9485C192.555 24.7897 191.906 24.5118 191.39 24.1147C190.887 23.7309 190.516 23.2015 190.291 22.5397C190.066 21.8912 189.947 21.0573 189.947 20.0647C189.947 18.9265 190.066 17.9867 190.291 17.2323C190.516 16.4912 190.887 15.8956 191.39 15.4588C191.906 15.022 192.555 14.7044 193.362 14.5323C194.169 14.3603 195.162 14.2676 196.313 14.2676C197.147 14.2676 197.862 14.3338 198.471 14.4529C199.066 14.572 199.583 14.7573 200.019 14.9823C200.456 15.2073 200.8 15.4853 201.078 15.8162C201.343 16.147 201.555 16.4779 201.7 16.8353C201.859 17.1926 201.965 17.6162 202.018 18.1059C202.084 18.5823 202.11 19.0853 202.11 19.6279L201.965 20.2103H191.681C191.681 21.0044 191.76 21.6529 191.919 22.1691C192.078 22.6853 192.343 23.0559 192.7 23.2809C193.058 23.5191 193.534 23.6647 194.13 23.7309C194.725 23.797 195.453 23.8235 196.313 23.8235C197.121 23.8235 197.783 23.797 198.299 23.7573C198.815 23.7176 199.238 23.625 199.543 23.5059C199.847 23.3735 200.072 23.2015 200.191 22.9765C200.31 22.7515 200.377 22.447 200.377 22.0897H202.11C202.11 22.6588 202.018 23.1353 201.819 23.5191C201.621 23.9162 201.29 24.2338 200.84 24.4853C200.39 24.7235 199.794 24.8956 199.053 25.0147C198.312 25.1206 197.399 25.1867 196.313 25.1867ZM196.313 15.7235C195.744 15.7235 195.228 15.7368 194.765 15.75C194.302 15.7765 193.905 15.8294 193.574 15.9088C193.23 16.0015 192.938 16.1206 192.7 16.2662C192.462 16.425 192.263 16.6103 192.118 16.8088C191.972 17.0206 191.853 17.3118 191.787 17.6823C191.721 18.0662 191.681 18.5162 191.681 19.0456H200.377C200.377 18.3441 200.297 17.7882 200.138 17.3912C199.993 16.9809 199.755 16.65 199.424 16.3985C199.106 16.147 198.682 15.9618 198.166 15.8691C197.65 15.7632 197.028 15.7235 196.313 15.7235ZM206.16 23.2544V24.9882H204.427V23.2544H206.16ZM208.185 19.7867C208.185 19.0588 208.225 18.4235 208.291 17.8676C208.371 17.325 208.503 16.8353 208.675 16.425C208.86 16.0147 209.112 15.6706 209.43 15.3926C209.734 15.1147 210.131 14.9029 210.594 14.7309C211.071 14.5588 211.64 14.4397 212.288 14.3735C212.937 14.3073 213.705 14.2676 214.565 14.2676C215.716 14.2676 216.669 14.3338 217.424 14.4794C218.178 14.625 218.76 14.8368 219.197 15.1279C219.634 15.4191 219.925 15.7897 220.097 16.2397C220.269 16.6897 220.362 17.2191 220.362 17.8412H218.615C218.615 17.6162 218.615 17.4176 218.602 17.2191C218.588 17.0206 218.549 16.8485 218.469 16.7029C218.403 16.5441 218.284 16.3985 218.112 16.2794C217.953 16.1603 217.715 16.0544 217.41 15.9618C217.106 15.8823 216.735 15.8162 216.272 15.7765C215.809 15.7368 215.24 15.7103 214.565 15.7103C213.797 15.7103 213.149 15.7368 212.619 15.7897C212.09 15.8426 211.653 15.9353 211.309 16.0544C210.965 16.1735 210.7 16.3456 210.515 16.5573C210.33 16.7691 210.197 17.0206 210.105 17.325C210.025 17.6294 209.972 17.9735 209.959 18.3838C209.946 18.7941 209.932 19.2573 209.932 19.7867C209.932 20.3029 209.946 20.7662 209.959 21.1765C209.972 21.5735 210.025 21.9176 210.105 22.222C210.197 22.5265 210.33 22.7779 210.515 22.9765C210.7 23.175 210.965 23.347 211.309 23.4794C211.653 23.5985 212.09 23.6912 212.619 23.7441C213.149 23.797 213.797 23.8235 214.565 23.8235C215.24 23.8235 215.809 23.797 216.272 23.7573C216.735 23.7044 217.106 23.6382 217.41 23.5456C217.715 23.4529 217.953 23.347 218.112 23.2147C218.284 23.0823 218.403 22.9235 218.469 22.7514C218.549 22.5794 218.588 22.3941 218.602 22.1823C218.615 21.9838 218.615 21.7588 218.615 21.5073H220.362C220.362 22.1426 220.269 22.6985 220.097 23.1618C219.925 23.625 219.634 23.9956 219.197 24.3C218.76 24.6044 218.178 24.8162 217.424 24.9618C216.669 25.1073 215.716 25.1867 214.565 25.1867C213.705 25.1867 212.937 25.147 212.288 25.0809C211.64 25.0015 211.071 24.8823 210.594 24.7235C210.131 24.5515 209.734 24.3397 209.43 24.0618C209.112 23.7838 208.86 23.4529 208.675 23.0559C208.503 22.6588 208.371 22.1956 208.291 21.6529C208.212 21.1103 208.185 20.4882 208.185 19.7867ZM222.387 19.7073C222.387 18.6353 222.506 17.7485 222.731 17.047C222.956 16.3456 223.327 15.7897 223.83 15.3794C224.346 14.9691 224.994 14.6912 225.802 14.5191C226.609 14.3471 227.602 14.2676 228.753 14.2676C229.905 14.2676 230.897 14.3471 231.705 14.5191C232.512 14.6912 233.16 14.9691 233.677 15.3794C234.18 15.7897 234.55 16.3456 234.775 17.047C235 17.7485 235.119 18.6353 235.119 19.7073C235.119 20.7794 235 21.6662 234.775 22.3676C234.55 23.0691 234.18 23.625 233.677 24.0485C233.16 24.4588 232.512 24.75 231.705 24.922C230.897 25.0941 229.905 25.1867 228.753 25.1867C227.602 25.1867 226.609 25.0941 225.802 24.922C224.994 24.75 224.346 24.4588 223.83 24.0485C223.327 23.625 222.956 23.0691 222.731 22.3676C222.493 21.6529 222.387 20.7662 222.387 19.7073ZM224.121 19.7073C224.121 20.2765 224.147 20.7794 224.187 21.2162C224.227 21.6397 224.306 22.0103 224.425 22.3147C224.544 22.6191 224.703 22.8706 224.915 23.0691C225.127 23.2676 225.405 23.4132 225.749 23.5323C226.093 23.6515 226.516 23.7176 227.006 23.7573C227.496 23.797 228.078 23.8235 228.753 23.8235C229.335 23.8235 229.852 23.8103 230.302 23.7838C230.765 23.7573 231.162 23.6912 231.493 23.5985C231.837 23.5059 232.128 23.3603 232.366 23.1882C232.618 23.0162 232.816 22.7647 232.962 22.4603C233.107 22.1559 233.213 21.772 233.28 21.322C233.346 20.872 233.385 20.3294 233.385 19.7073C233.385 19.0853 233.346 18.5559 233.28 18.1191C233.213 17.6823 233.107 17.3118 232.962 17.0206C232.816 16.7162 232.618 16.4912 232.366 16.3191C232.128 16.1471 231.837 16.0147 231.493 15.922C231.162 15.8294 230.765 15.7765 230.302 15.75C229.852 15.7368 229.335 15.7235 228.753 15.7235C228.171 15.7235 227.655 15.7368 227.205 15.75C226.741 15.7765 226.344 15.8294 226.013 15.922C225.669 16.0147 225.378 16.1471 225.14 16.3191C224.888 16.4912 224.69 16.7162 224.544 17.0206C224.399 17.3118 224.293 17.6823 224.227 18.1191C224.147 18.5426 224.121 19.072 224.121 19.7073ZM238.891 23.2544V24.9882H237.144V23.2544H238.891ZM253.357 24.9882H251.624V19.1912C251.624 18.5426 251.571 18 251.478 17.5632C251.385 17.1265 251.187 16.7691 250.896 16.4912C250.618 16.2132 250.207 16.0147 249.665 15.8956C249.135 15.7765 248.434 15.7235 247.574 15.7235C246.634 15.7235 245.853 15.7897 245.257 15.922C244.662 16.0676 244.185 16.2662 243.841 16.5176C243.497 16.7691 243.259 17.0735 243.14 17.4309C243.007 17.7882 242.941 18.1853 242.941 18.622V24.9882H241.207V14.5588H242.941V16.3059C243.06 16.0015 243.246 15.75 243.484 15.5382C243.722 15.3132 243.987 15.1279 244.278 14.9823C244.582 14.8368 244.9 14.7176 245.244 14.625C245.575 14.5323 245.919 14.4529 246.263 14.4C246.607 14.347 246.938 14.3073 247.269 14.2941C247.6 14.2809 247.891 14.2676 248.156 14.2676C248.924 14.2676 249.585 14.3206 250.141 14.4132C250.71 14.5059 251.187 14.6515 251.571 14.8368C251.955 15.0353 252.272 15.2603 252.497 15.5382C252.735 15.8162 252.921 16.1471 253.053 16.5044C253.172 16.8618 253.265 17.272 253.305 17.722C253.344 18.172 253.371 18.6618 253.371 19.1912L253.357 24.9882ZM266.685 14.5588H256.269V15.8426H264.515L255.687 23.5323V24.9882H266.685V23.6912H257.99L266.685 16.0147V14.5588Z" fill="black"/>
<path d="M25.6733 16.3037H24.9786V10.6703C24.9426 3.76254 20.2306 0.000915527 14.5036 0.000915527C8.77659 0.000915527 3.6435 3.94253 3.81989 10.6703L3.81269 16.3001C3.81269 16.3001 3.89909 16.3073 3.46713 16.3073C3.00997 16.3073 -0.00292969 16.8364 -0.00292969 19.5254V32.4193C-0.00292969 35.2846 3.38794 36.0009 3.46713 36.0009H25.4969C25.5761 36.0009 28.7942 35.6445 28.7942 32.4193V19.7018C28.7978 16.6565 25.7525 16.3037 25.6733 16.3037ZM16.973 31.0334H11.8363L12.9018 25.7887C12.1387 25.2812 11.6311 24.3957 11.6311 23.3878C11.6311 21.8111 12.8694 20.5297 14.3992 20.5297C15.9255 20.5297 17.1674 21.8111 17.1674 23.3878C17.1674 24.3957 16.6598 25.2776 15.8967 25.7851L16.973 31.0334ZM8.6686 16.3037L8.67581 10.7459C8.67581 7.16421 10.8608 4.29889 14.4028 4.29889C17.9089 4.29889 20.1263 6.80425 20.1263 10.7459L20.1299 16.3037H8.6686Z" fill="#8DCB8B"/>
</g>
<defs>
<clipPath id="clip0_304:2473">
<rect width="278.4" height="36" fill="white"/>
</clipPath>
</defs>
</svg>
