<svg width="39" height="44" viewBox="0 0 39 44" fill="none" xmlns="http://www.w3.org/2000/svg">
<path d="M12.2154 35.9379C9.9928 35.9379 8.18433 37.7463 8.18433 39.9689C8.18433 42.1916 9.9928 44 12.2154 44C14.438 44 16.2465 42.1916 16.2465 39.9689C16.2457 38.8937 15.8264 37.8813 15.0652 37.1192C14.3031 36.3579 13.2907 35.9387 12.2154 35.9379ZM12.2154 37.804C13.4086 37.804 14.3795 38.7749 14.3795 39.9681C14.3786 40.5469 14.1529 41.09 13.7447 41.4974C13.3365 41.9064 12.7933 42.1322 12.2154 42.1322C11.0222 42.1322 10.0514 41.1613 10.0514 39.9681C10.0514 38.7749 11.0222 37.804 12.2154 37.804Z" fill="white"/>
<path d="M29.029 35.9379C26.8063 35.9379 24.9979 37.7463 24.9979 39.9689C24.9979 42.1916 26.8063 44 29.029 44C31.2516 44 33.06 42.1916 33.06 39.9689C33.0592 38.8937 32.6391 37.8813 31.8787 37.1192C31.1166 36.3579 30.1042 35.9387 29.029 35.9379ZM29.029 37.804C30.2222 37.804 31.193 38.7749 31.193 39.9681C31.1922 40.5469 30.9664 41.09 30.5582 41.4974C30.15 41.9064 29.6069 42.1322 29.029 42.1322C27.8358 42.1322 26.8649 41.1613 26.8649 39.9681C26.8649 38.7749 27.8358 37.804 29.029 37.804Z" fill="white"/>
<path d="M38.0985 12.8443C37.9678 12.6313 37.7624 12.4828 37.5197 12.4251C37.4535 12.409 37.3856 12.4005 37.3169 12.3996L32.0731 12.3199C32.4329 11.3244 32.6145 10.2789 32.6145 9.20956C32.6154 4.13123 28.4833 0 23.4049 0C18.3266 0 14.1954 4.13123 14.1954 9.20956C14.1954 10.1804 14.3464 11.1377 14.646 12.0568L8.51706 11.9643L7.74394 9.62285C7.19826 7.96544 5.65965 6.85031 3.91568 6.84861H0.933516C0.418385 6.84861 0 7.267 0 7.78213C0 8.29726 0.418385 8.71565 0.933516 8.71565H3.91568C4.85259 8.71819 5.67917 9.31819 5.97196 10.2093L11.5747 27.1433L11.1708 28.1209C10.3264 30.1661 11.3032 32.5178 13.3484 33.363C13.8381 33.5641 14.3549 33.6668 14.8836 33.6668H32.1257C32.6408 33.6668 33.0592 33.2484 33.0592 32.7333C33.0592 32.2182 32.6408 31.7998 32.1257 31.7998H14.8802C13.704 31.7998 12.7408 30.8425 12.7323 29.6663C12.7298 29.3778 12.7849 29.096 12.8953 28.8287L13.2016 28.0887L31.7998 26.1843C33.8731 25.9704 35.5933 24.4658 36.0812 22.4392L38.2088 13.5504C38.2691 13.3077 38.2292 13.0573 38.0985 12.8443ZM13.2322 26.2114L9.13827 13.8406L15.504 13.9365C17.1631 16.7031 20.186 18.42 23.4041 18.42C26.5551 18.42 29.4507 16.8338 31.1591 14.1742L36.1228 14.2488L34.266 22.0038C33.9639 23.2615 32.8963 24.195 31.6097 24.3274L13.2322 26.2114ZM23.4049 1.86703C27.4539 1.86703 30.7483 5.16065 30.7483 9.20956C30.7483 10.3043 30.5124 11.3575 30.0465 12.3394C29.7639 12.9377 29.4007 13.4969 28.9662 14.001C27.5659 15.6228 25.5393 16.5521 23.4058 16.5521C21.1857 16.5521 19.1074 15.56 17.7046 13.8305C17.2836 13.3119 16.9365 12.7416 16.6726 12.1366C16.2686 11.2107 16.0633 10.2254 16.0633 9.20871C16.0624 5.16065 19.356 1.86703 23.4049 1.86703Z" fill="white"/>
<path d="M22.7371 12.5652L27.1416 8.16066C27.5057 7.79659 27.5057 7.20423 27.1416 6.84016C26.9651 6.66364 26.7309 6.56689 26.4814 6.56689C26.2319 6.56689 25.9976 6.66364 25.8211 6.84016L22.7371 9.92416L21.3564 8.5434C21.1799 8.36688 20.9456 8.27014 20.6961 8.27014C20.4466 8.27014 20.2124 8.36688 20.0359 8.5434C19.6718 8.90747 19.6718 9.49983 20.0359 9.8639L22.7371 12.5652Z" fill="white"/>
</svg>
