<svg width="43" height="44" viewBox="0 0 43 44" fill="none" xmlns="http://www.w3.org/2000/svg">
<path d="M40.4381 15.8015L23.2355 0.681856C21.9167 -0.227285 20.1732 -0.227285 18.8544 0.681856L1.65366 15.8015C1.04196 16.2224 0.566811 16.8135 0.287147 17.501C0.0982104 17.964 0.000935331 18.4597 0 18.9601V40.2014C0.00561198 42.305 1.71633 44.0064 3.81989 43.9998C3.82738 43.9998 3.83486 43.9998 3.84234 43.9998H38.2476C39.138 44.0082 40.0032 43.7052 40.6944 43.1431V43.1543C41.5792 42.4294 42.0908 41.3444 42.0889 40.2005V18.9592C42.088 18.4597 41.9907 17.9649 41.8027 17.5028C41.524 16.8144 41.0498 16.2233 40.4381 15.8015ZM2.71807 17.3382L19.9207 2.21767C20.595 1.74346 21.4939 1.74346 22.1683 2.21767L39.3728 17.3392C39.5112 17.4364 39.6356 17.5524 39.7431 17.6824L33.1098 26.4437V13.7204C33.1191 13.2022 32.7076 12.7729 32.1894 12.7598H9.89861C9.38043 12.7729 8.96889 13.2022 8.97824 13.7204V26.1771L2.34955 17.6768C2.45711 17.5487 2.58058 17.4346 2.71807 17.3382ZM31.2475 28.7053L27.5773 33.1481L22.924 30.5264C21.7539 29.8754 20.3294 29.8763 19.1593 30.5273L14.7923 32.99L10.8489 28.3676V14.6304H31.2391V28.6922C31.2391 28.6959 31.2475 28.7006 31.2475 28.7053ZM2.0755 41.0779C1.93988 40.8057 1.86879 40.5054 1.86973 40.2005V20.0039L9.1784 29.3095L13.1236 33.9254L2.0755 41.0779ZM3.94429 42.1292L20.0769 32.137C20.6802 31.8059 21.4107 31.8097 22.0102 32.1473L27.4576 35.1993L38.1447 42.1301L3.94429 42.1292ZM40.2183 40.2005C40.2183 40.5045 40.1481 40.8057 40.0125 41.0779L29.2366 34.0797L40.2183 20.0516V40.2005Z" fill="white"/>
<path d="M26.699 25.3326H25.9713V22.0841C25.9947 19.8225 24.3672 17.8817 22.1365 17.5104V16.2542C22.1365 15.8408 21.8016 15.506 21.3882 15.506C20.9748 15.506 20.6399 15.8408 20.6399 16.2542V17.5104C18.383 17.8602 16.7162 19.8001 16.7116 22.0841V25.3326H16.011C15.5976 25.3326 15.2627 25.6674 15.2627 26.0808C15.2627 26.4942 15.5976 26.8291 16.011 26.8291H20.6399V27.5577C20.6399 27.9711 20.9748 28.306 21.3882 28.306C21.8016 28.306 22.1365 27.9711 22.1365 27.5577V26.8291H26.699C27.1124 26.8291 27.4473 26.4942 27.4473 26.0808C27.4473 25.6674 27.1124 25.3326 26.699 25.3326ZM24.4748 25.3326H18.2081V22.0841C18.2081 20.3538 19.6111 18.9508 21.3414 18.9508C23.0718 18.9508 24.4748 20.3538 24.4748 22.0841V25.3326Z" fill="white"/>
</svg>
