<svg width="44" height="44" viewBox="0 0 44 44" fill="none" xmlns="http://www.w3.org/2000/svg">
<path d="M5.18132 7.23834C6.18081 7.23834 6.99362 6.42553 6.99362 5.42604C6.99362 4.42656 6.18081 3.61374 5.18132 3.61374C4.18184 3.61374 3.36902 4.42656 3.36902 5.42604C3.36902 6.42553 4.18184 7.23834 5.18132 7.23834ZM5.18132 4.39122C5.73589 4.39122 6.18714 4.85607 6.18714 5.42695C6.18714 5.99782 5.73589 6.46268 5.18132 6.46268C4.62676 6.46268 4.17548 5.99782 4.17548 5.42695C4.17548 4.85607 4.62676 4.39122 5.18132 4.39122Z" fill="white"/>
<path d="M10.3174 7.23834C11.3169 7.23834 12.1297 6.42553 12.1297 5.42604C12.1297 4.42656 11.3169 3.61374 10.3174 3.61374C9.31794 3.61374 8.50513 4.42656 8.50513 5.42604C8.50513 6.42553 9.31794 7.23834 10.3174 7.23834ZM10.3174 4.39122C10.872 4.39122 11.3233 4.85607 11.3233 5.42695C11.3233 5.99782 10.872 6.46268 10.3174 6.46268C9.76287 6.46268 9.31162 5.99782 9.31162 5.42695C9.31162 4.85607 9.76287 4.39122 10.3174 4.39122Z" fill="white"/>
<path d="M15.4535 7.23834C16.453 7.23834 17.2658 6.42553 17.2658 5.42604C17.2658 4.42656 16.453 3.61374 15.4535 3.61374C14.4541 3.61374 13.6412 4.42656 13.6412 5.42604C13.6412 6.42553 14.4541 7.23834 15.4535 7.23834ZM15.4535 4.39122C16.0081 4.39122 16.4594 4.85607 16.4594 5.42695C16.4594 5.99782 16.0081 6.46268 15.4535 6.46268C14.899 6.46268 14.4477 5.99782 14.4477 5.42695C14.4477 4.85607 14.899 4.39122 15.4535 4.39122Z" fill="white"/>
<path d="M21.5646 44C21.3797 43.9982 21.2039 43.942 21.0535 43.8378L14.3924 39.288C13.4563 38.6501 12.5901 37.6714 11.9349 36.5179H3.75599C1.68544 36.5179 0 34.7817 0 32.6486V3.93179C0 1.76428 1.68453 0 3.75599 0H39.3768C41.4483 0 43.1328 1.76337 43.1328 3.93179V32.6486C43.1328 34.7817 41.4474 36.5179 39.3768 36.5179H31.1979C30.5427 37.6705 29.6765 38.6492 28.7404 39.2871L22.0775 43.8432C21.9261 43.9456 21.7512 43.9991 21.57 43.9991H21.5646V44ZM12.5058 32.2527C12.5058 34.1819 13.8442 36.7245 15.4281 37.8046L21.5673 42.0001L27.7536 37.7811C28.522 37.2455 29.2478 36.3702 29.8024 35.3091C29.8214 35.2556 29.8459 35.204 29.874 35.1551C30.3606 34.1764 30.6288 33.1461 30.6288 32.2508V23.4648L21.5673 19.0011L12.5058 23.4521V32.2527ZM39.3777 34.7056C40.4497 34.7056 41.3214 33.7831 41.3214 32.6486V10.6926H1.81321V32.6486C1.81321 33.7831 2.68492 34.7056 3.7569 34.7056H11.1067C10.8376 33.9163 10.6989 33.0945 10.6935 32.2545V22.8912C10.6853 22.5505 10.8765 22.2306 11.181 22.0757L21.165 17.1788C21.2873 17.1181 21.425 17.0864 21.5619 17.0864C21.6987 17.0864 21.8373 17.119 21.9606 17.1797L31.9482 22.0884C32.2572 22.2451 32.4475 22.565 32.4411 22.9057V32.2527C32.4357 33.0945 32.297 33.9173 32.0279 34.7065H39.3777V34.7056ZM41.3214 8.88029V3.93179C41.3214 2.78279 40.4316 1.8123 39.3777 1.8123H3.7569C2.70305 1.8123 1.81321 2.78279 1.81321 3.93179V8.88029H41.3214Z" fill="white"/>
<path d="M21.5674 36.5958C18.23 36.5958 15.5152 33.881 15.5152 30.5436C15.5152 27.2063 18.23 24.4914 21.5674 24.4914C24.9002 24.495 27.615 27.2099 27.6195 30.5427C27.6186 33.881 24.9038 36.5958 21.5674 36.5958ZM21.5674 25.9648C20.3441 25.9648 19.1941 26.4415 18.3288 27.3059C17.4634 28.1713 16.9877 29.3212 16.9877 30.5445C16.9877 31.7678 17.4643 32.9177 18.3288 33.7831C19.1941 34.6485 20.3441 35.1242 21.5674 35.1242C24.0892 35.1215 26.1443 33.0672 26.147 30.5445C26.147 28.0191 24.0919 25.9648 21.5674 25.9648Z" fill="white"/>
<path d="M20.7907 32.8182C20.5904 32.8182 20.4028 32.7394 20.2633 32.5953L18.5588 30.8446C18.422 30.7032 18.3477 30.5175 18.3504 30.3208C18.3531 30.1242 18.432 29.9403 18.5733 29.8034C18.712 29.6684 18.8941 29.595 19.0871 29.595C19.2874 29.595 19.4749 29.6739 19.6145 29.8179L20.8133 31.0494L23.5445 28.4714C23.6813 28.3418 23.8607 28.2711 24.0492 28.2711C24.2513 28.2711 24.4461 28.3554 24.5847 28.5022C24.7197 28.6454 24.7913 28.832 24.785 29.0287C24.7795 29.2253 24.6971 29.4074 24.5548 29.5425L21.2972 32.6179C21.1586 32.7475 20.9792 32.8182 20.7907 32.8182Z" fill="white"/>
</svg>
