<svg width="34" height="44" viewBox="0 0 34 44" fill="none" xmlns="http://www.w3.org/2000/svg">
<path d="M13.0876 41.667C14.624 41.667 15.8688 40.4212 15.8688 38.8857C15.8688 37.3493 14.6231 36.1045 13.0876 36.1045C11.5521 36.1045 10.3064 37.3503 10.3064 38.8857C10.3073 40.4212 11.5521 41.6652 13.0876 41.667ZM13.0876 37.9143C13.6236 37.9143 14.0581 38.3489 14.0581 38.8848C14.0581 39.4208 13.6236 39.8554 13.0876 39.8554C12.5516 39.8554 12.1171 39.4208 12.1171 38.8848C12.1171 38.3498 12.5516 37.9152 13.0876 37.9143Z" fill="white"/>
<path d="M31.6872 18.3868V15.4462C31.6872 12.215 29.3333 9.54873 26.1646 9.23004V3.70651C26.1719 1.66675 24.525 0.00724614 22.4853 3.33828e-06C22.4798 3.33828e-06 22.4744 3.33828e-06 22.4681 3.33828e-06H3.7056C1.66132 -0.00271271 0.00181404 1.65227 3.34009e-06 3.69655C3.34009e-06 3.70017 3.34009e-06 3.70379 3.34009e-06 3.70651V40.2926C-0.00271271 42.3369 1.65137 43.9964 3.69565 44C3.69927 44 3.70289 44 3.7056 44H22.4681C24.5078 44.0018 26.1628 42.3495 26.1646 40.3098C26.1646 40.3044 26.1646 40.2989 26.1646 40.2926V32.321H30.4234C32.2259 32.321 33.679 30.8199 33.679 29.0174V21.3862C33.6691 20.0788 32.8877 18.9028 31.6872 18.3868ZM25.3072 11.0136C25.3127 11.0136 25.3281 11.0308 25.3335 11.0299C25.3806 11.0272 25.4548 11.0444 25.5218 11.0444H25.5644C27.9617 11.0444 29.8774 12.9999 29.8774 15.4462V18.1061H21.0956V15.4462C21.0874 13.0805 22.9434 11.1268 25.3072 11.0136ZM1.8107 3.70651C1.80618 2.66354 2.64906 1.81432 3.69202 1.8107C3.69655 1.8107 3.70108 1.8107 3.70651 1.8107H22.469C23.5074 1.80799 24.3521 2.64725 24.3548 3.68568C24.3548 3.69292 24.3548 3.69926 24.3548 3.70651V7.06173H1.81161V3.70651H1.8107ZM24.3539 40.2926C24.363 41.331 23.5273 42.1802 22.4889 42.1884C22.4816 42.1884 22.4753 42.1884 22.4681 42.1884H3.7056C2.66264 42.192 1.81432 41.3491 1.8107 40.3062C1.8107 40.3016 1.8107 40.2971 1.8107 40.2917V35.5793H24.3539V40.2926ZM24.3539 33.7686H1.8107V8.87153H24.3539V9.30519C21.4061 9.8656 19.2758 12.4458 19.284 15.4462V18.3868C18.1314 18.9426 17.3936 20.1051 17.3827 21.3853V29.0165C17.3827 30.819 18.8222 32.3201 20.6248 32.3201H24.3539V33.7686ZM31.8683 29.0165C31.8683 29.8213 31.2273 30.5094 30.4234 30.5094H20.6248C19.8208 30.5094 19.1934 29.8204 19.1934 29.0165V21.3853C19.1889 20.6691 19.7077 20.0571 20.4147 19.9449C20.4174 19.9449 20.4138 19.9394 20.4175 19.9385C20.4854 19.9258 20.5551 19.9186 20.6248 19.9168H30.4234C30.4949 19.9186 30.5664 19.9249 30.637 19.9385C30.6407 19.9394 30.637 19.9421 30.6398 19.9421C31.3486 20.0553 31.8701 20.6673 31.8683 21.3844V29.0165Z" fill="white"/>
<path d="M16.136 3.25838H10.0385C9.53876 3.25838 9.13316 3.66397 9.13316 4.16373C9.13316 4.66348 9.53876 5.06908 10.0385 5.06908H16.136C16.6358 5.06908 17.0414 4.66348 17.0414 4.16373C17.0414 3.66397 16.6367 3.25838 16.136 3.25838Z" fill="white"/>
<path d="M25.4403 24.5649C24.9406 24.5649 24.535 24.9705 24.535 25.4702V27.1958C24.535 27.6956 24.9406 28.1012 25.4403 28.1012C25.9401 28.1012 26.3457 27.6956 26.3457 27.1958V25.4702C26.3457 24.9705 25.941 24.5649 25.4403 24.5649Z" fill="white"/>
</svg>
