<svg width="40" height="51" viewBox="0 0 40 51" fill="none" xmlns="http://www.w3.org/2000/svg">
<path d="M39.8675 44.4119L33.4605 33.3145C34.5231 32.4197 35.2575 31.147 35.4537 29.7048C35.587 28.7242 36.0913 27.8505 36.8739 27.2447C38.9026 25.6744 39.6408 22.9193 38.6692 20.5449C38.2943 19.629 38.2943 18.6201 38.6692 17.7043C39.6408 15.3299 38.9026 12.5749 36.8739 11.0045C36.0913 10.3987 35.5869 9.52505 35.4537 8.5444C35.1079 6.00237 33.091 3.98548 30.549 3.6399C29.5685 3.50654 28.6948 3.00217 28.0891 2.21959C26.5186 0.190836 23.7638 -0.547318 21.3892 0.424322C20.4733 0.799186 19.4644 0.799186 18.5486 0.424322C16.1744 -0.547416 13.4192 0.190836 11.8488 2.21959C11.243 3.00217 10.3693 3.50654 9.3887 3.6399C6.84657 3.98558 4.82978 6.00237 4.4842 8.5445C4.35084 9.52514 3.84647 10.3988 3.0639 11.0046C1.03514 12.575 0.296983 15.3301 1.26862 17.7044C1.64349 18.6202 1.64349 19.6292 1.26862 20.545C0.296884 22.9193 1.03514 25.6744 3.0639 27.2448C3.84647 27.8506 4.35084 28.7243 4.4842 29.7048C4.68287 31.166 5.43438 32.4528 6.51959 33.3493L0.132553 44.4119C-0.0674933 44.7584 -0.0391978 45.1914 0.204479 45.5088C0.448057 45.8261 0.858736 45.9657 1.24547 45.8622L6.81264 44.3704L8.29795 49.9136C8.40153 50.3002 8.72772 50.5862 9.12445 50.6384C9.16778 50.6442 9.21102 50.6469 9.25386 50.6469C9.60389 50.6469 9.93215 50.4609 10.1103 50.1523L17.0023 38.2151C17.5249 38.1588 18.0453 38.0309 18.5485 37.8249C19.4644 37.45 20.4734 37.45 21.3891 37.8249C21.9138 38.0397 22.4571 38.1706 23.0021 38.2228L29.8896 50.1523C30.0679 50.461 30.396 50.6469 30.7461 50.6469C30.789 50.6469 30.8322 50.6442 30.8756 50.6384C31.2723 50.5862 31.5985 50.3002 31.7021 49.9136L33.1875 44.3704L38.7547 45.8622C39.1409 45.9657 39.552 45.8263 39.7956 45.5088C40.0391 45.1914 40.0675 44.7584 39.8675 44.4119ZM9.59093 47.0945L8.46772 42.9027C8.39975 42.6492 8.23404 42.4332 8.00678 42.302C7.77953 42.1708 7.50963 42.1353 7.25606 42.2031L3.04035 43.3327L8.23869 34.3289C8.60623 34.4604 8.99099 34.5553 9.38861 34.6094C10.3692 34.7428 11.2429 35.2471 11.8487 36.0297C12.6175 37.0229 13.6705 37.7061 14.8236 38.0314L9.59093 47.0945ZM17.799 35.9937C16.2448 36.6298 14.4414 36.1465 13.4134 34.8186C12.4879 33.6231 11.1532 32.8524 9.65514 32.6488C7.99115 32.4225 6.67086 31.1024 6.4447 29.4383C6.24099 27.9402 5.47039 26.6056 4.27486 25.68C2.94686 24.6521 2.46366 22.8486 3.09971 21.2944C3.67244 19.8952 3.67244 18.3541 3.09971 16.9549C2.46366 15.4007 2.94686 13.5972 4.27486 12.5693C5.47039 11.6438 6.24099 10.3092 6.4447 8.81103C6.67096 7.14705 7.99115 5.82676 9.65514 5.6005C11.1532 5.39689 12.4879 4.62629 13.4134 3.43076C14.1384 2.49414 15.2487 1.9778 16.3857 1.9778C16.8609 1.9778 17.3408 2.06813 17.7989 2.25561C19.1982 2.82824 20.7394 2.82824 22.1385 2.25561C23.6926 1.61946 25.4962 2.10275 26.5241 3.43076C27.4496 4.62629 28.7842 5.39689 30.2822 5.6005C31.9462 5.82676 33.2664 7.14695 33.4927 8.81103C33.6964 10.3092 34.467 11.6438 35.6625 12.5693C36.9906 13.5972 37.4737 15.4006 36.8377 16.9549C36.2651 18.3541 36.2651 19.8952 36.8377 21.2944C37.4737 22.8486 36.9905 24.6521 35.6625 25.68C34.467 26.6055 33.6964 27.9401 33.4927 29.4382C33.2664 31.1023 31.9462 32.4225 30.2823 32.6487C28.7841 32.8523 27.4495 33.6229 26.524 34.8185C25.496 36.1466 23.6926 36.6297 22.1385 35.9936C20.7393 35.4211 19.1983 35.4211 17.799 35.9937ZM32.7439 42.2031C32.2159 42.0616 31.6737 42.375 31.5322 42.9027L30.4089 47.0945L25.1673 38.0157C26.2994 37.6845 27.3319 37.0076 28.089 36.0297C28.6947 35.247 29.5684 34.7427 30.5489 34.6094C30.9651 34.5528 31.367 34.4506 31.75 34.3094L36.9595 43.3327L32.7439 42.2031Z" fill="white"/>
<path d="M15.4728 15.465L12.3946 18.5431C12.2091 18.7286 12.1049 18.9803 12.1049 19.2426C12.1049 19.505 12.2091 19.7567 12.3946 19.9422L18.1678 25.7155C18.3533 25.901 18.605 26.0052 18.8674 26.0052C19.1297 26.0052 19.3814 25.901 19.5669 25.7155L27.6054 17.677C27.9917 17.2907 27.9917 16.6642 27.6054 16.2779L24.5273 13.1997C24.3417 13.0142 24.0901 12.9099 23.8278 12.9099C23.5654 12.9099 23.3137 13.0142 23.1282 13.1997L18.8675 17.4605L16.8721 15.4651C16.6866 15.2796 16.4349 15.1753 16.1726 15.1753C15.91 15.1752 15.6583 15.2795 15.4728 15.465ZM18.1677 19.5592C18.3532 19.7447 18.6049 19.849 18.8673 19.849C19.1296 19.849 19.3813 19.7447 19.5668 19.5592L23.8276 15.2984L25.5066 16.9774L18.8673 23.6167L14.4933 19.2427L16.1724 17.5638L18.1677 19.5592Z" fill="white"/>
<path d="M32.8615 19.4577C32.8615 16.8296 32.0739 14.302 30.5839 12.1482C29.1289 10.0451 27.1078 8.43694 24.7391 7.49765C24.2309 7.29631 23.6561 7.54474 23.4547 8.05267C23.2533 8.5606 23.5018 9.13561 24.0096 9.33705C28.185 10.9927 30.8829 14.9654 30.8829 19.4577C30.8829 25.4585 26.0009 30.3405 20.0001 30.3405C13.9993 30.3405 9.11723 25.4585 9.11723 19.4577C9.11723 14.9653 11.8152 10.9926 15.9905 9.33695C16.4985 9.13551 16.747 8.5605 16.5456 8.05257C16.3441 7.54464 15.769 7.29612 15.2612 7.49755C12.8924 8.43694 10.8712 10.045 9.41621 12.1481C7.92616 14.3019 7.13853 16.8295 7.13853 19.4576C7.13853 26.5494 12.9082 32.3191 20.0001 32.3191C27.0919 32.3192 32.8615 26.5495 32.8615 19.4577Z" fill="white"/>
<path d="M20 8.5744C20.2602 8.5744 20.5154 8.46953 20.6993 8.28452C20.8834 8.1005 20.9893 7.84624 20.9893 7.58505C20.9893 7.32485 20.8835 7.0696 20.6993 6.88558C20.5154 6.70156 20.2602 6.5957 20 6.5957C19.7398 6.5957 19.4845 6.70156 19.3005 6.88558C19.1165 7.0696 19.0106 7.32485 19.0106 7.58505C19.0106 7.84624 19.1165 8.1005 19.3005 8.28452C19.4845 8.46953 19.7398 8.5744 20 8.5744Z" fill="white"/>
</svg>
